<svg width="112" height="112" viewBox="0 0 112 112" fill="none" xmlns="http://www.w3.org/2000/svg">
<circle opacity="0.1" cx="56" cy="56" r="56" fill="#4CEAAC"/>
<path d="M36.6154 38.3846C36.6154 34.816 39.5083 31.9231 43.0769 31.9231H68.9231C72.4917 31.9231 75.3846 34.816 75.3846 38.3846V78.0769H36.6154V38.3846Z" stroke="#4CEAAC" stroke-width="1.84615"/>
<path d="M40.3077 43C40.3077 42.4902 40.721 42.0769 41.2308 42.0769H70.7693C71.2791 42.0769 71.6923 42.4902 71.6923 43V78.0769H40.3077V43Z" fill="#4CEAAC" stroke="#4CEAAC" stroke-width="1.84615"/>
<path d="M51.1336 59.412H46.2875C46.0733 59.412 45.8678 59.3269 45.7164 59.1755C45.5649 59.024 45.4798 58.8185 45.4798 58.6043V53.7582C45.4827 53.5982 45.532 53.4425 45.6216 53.3099C45.7112 53.1773 45.8373 53.0735 45.9846 53.0111C46.1326 52.9511 46.295 52.9364 46.4513 52.9688C46.6077 53.0011 46.7509 53.0791 46.863 53.1928L48.7106 55.0404L49.1447 54.6062C50.9651 52.7924 53.4302 51.774 56 51.774C58.5698 51.774 61.0349 52.7924 62.8553 54.6062C63.0063 54.7577 63.0912 54.9628 63.0912 55.1767C63.0912 55.3906 63.0063 55.5957 62.8553 55.7471C62.781 55.8231 62.6923 55.8835 62.5943 55.9248C62.4963 55.966 62.3911 55.9872 62.2848 55.9872C62.1786 55.9872 62.0733 55.966 61.9754 55.9248C61.8774 55.8835 61.7887 55.8231 61.7144 55.7471C60.1968 54.2354 58.142 53.3866 56 53.3866C53.8579 53.3866 51.8032 54.2354 50.2856 55.7471L49.8514 56.1812L51.7091 58.0389C51.8204 58.1525 51.8957 58.2963 51.9256 58.4524C51.9555 58.6085 51.9387 58.7699 51.8772 58.9165C51.8158 59.0631 51.7125 59.1883 51.5802 59.2765C51.4479 59.3646 51.2926 59.4118 51.1336 59.412ZM65.7125 63.5111H60.8663C60.7074 63.5113 60.5521 63.5585 60.4198 63.6466C60.2875 63.7347 60.1842 63.8599 60.1227 64.0065C60.0613 64.1531 60.0445 64.3146 60.0744 64.4707C60.1043 64.6268 60.1796 64.7706 60.2909 64.8841L62.1485 66.7418L61.7144 67.176C60.1968 68.6877 58.142 69.5365 56 69.5365C53.8579 69.5365 51.8032 68.6877 50.2856 67.176C50.2113 67.0999 50.1226 67.0395 50.0246 66.9983C49.9266 66.9571 49.8214 66.9358 49.7151 66.9358C49.6088 66.9358 49.5036 66.9571 49.4057 66.9983C49.3077 67.0395 49.219 67.0999 49.1447 67.176C48.9937 67.3274 48.9088 67.5325 48.9088 67.7464C48.9088 67.9603 48.9937 68.1654 49.1447 68.3168C50.9638 70.1331 53.4294 71.1533 56 71.1533C58.5706 71.1533 61.0362 70.1331 62.8553 68.3168L63.2894 67.8827L65.137 69.7303C65.2113 69.8078 65.3007 69.8692 65.3997 69.9109C65.4987 69.9526 65.6051 69.9736 65.7125 69.9726C65.8164 69.9721 65.9192 69.9515 66.0154 69.912C66.1627 69.8496 66.2888 69.7458 66.3784 69.6132C66.468 69.4806 66.5172 69.3249 66.5202 69.1649V64.3187C66.5202 64.2127 66.4993 64.1077 66.4587 64.0097C66.4181 63.9117 66.3586 63.8226 66.2836 63.7476C66.2086 63.6726 66.1196 63.6131 66.0216 63.5725C65.9236 63.5319 65.8186 63.5111 65.7125 63.5111Z" fill="#0C0C0C"/>
<path d="M50.4615 36.0769H61.5385" stroke="#4CEAAC" stroke-width="1.84615" stroke-linecap="round"/>
<path d="M32 78.0769H80" stroke="#4CEAAC" stroke-width="1.84615" stroke-linecap="round"/>
</svg>
