<svg width="294" height="82" viewBox="0 0 294 82" fill="none" xmlns="http://www.w3.org/2000/svg">
<path d="M1.328 77V65.08H5.536C6.32533 65.08 7.01867 65.2293 7.616 65.528C8.21333 65.8267 8.67733 66.2533 9.008 66.808C9.34933 67.3627 9.52 68.0133 9.52 68.76C9.52 69.5067 9.34933 70.1573 9.008 70.712C8.67733 71.256 8.21333 71.6827 7.616 71.992C7.02933 72.2907 6.336 72.44 5.536 72.44H2.896V77H1.328ZM2.896 71H5.584C6.064 71 6.48 70.9093 6.832 70.728C7.184 70.5467 7.456 70.2853 7.648 69.944C7.84 69.6027 7.936 69.208 7.936 68.76C7.936 68.3013 7.84 67.9067 7.648 67.576C7.456 67.2347 7.184 66.9733 6.832 66.792C6.48 66.6107 6.064 66.52 5.584 66.52H2.896V71ZM15.248 77.192C14.416 77.192 13.664 77 12.992 76.616C12.32 76.2213 11.7867 75.6827 11.392 75C10.9973 74.3173 10.8 73.544 10.8 72.68C10.8 71.816 10.992 71.048 11.376 70.376C11.7707 69.704 12.304 69.1707 12.976 68.776C13.648 68.3813 14.4053 68.184 15.248 68.184C16.08 68.184 16.832 68.3813 17.504 68.776C18.176 69.16 18.704 69.688 19.088 70.36C19.4827 71.032 19.68 71.8053 19.68 72.68C19.68 73.5547 19.4773 74.3333 19.072 75.016C18.6667 75.688 18.128 76.2213 17.456 76.616C16.7947 77 16.0587 77.192 15.248 77.192ZM15.248 75.752C15.7813 75.752 16.2613 75.6187 16.688 75.352C17.1253 75.0853 17.4667 74.7173 17.712 74.248C17.968 73.7787 18.096 73.256 18.096 72.68C18.096 72.0933 17.968 71.576 17.712 71.128C17.4667 70.6693 17.1253 70.3067 16.688 70.04C16.2613 69.7627 15.7813 69.624 15.248 69.624C14.704 69.624 14.2133 69.7627 13.776 70.04C13.3493 70.3067 13.008 70.6693 12.752 71.128C12.496 71.576 12.368 72.0933 12.368 72.68C12.368 73.256 12.496 73.7787 12.752 74.248C13.008 74.7173 13.3493 75.0853 13.776 75.352C14.2133 75.6187 14.704 75.752 15.248 75.752ZM21.6208 77V64.888H23.1088V77H21.6208ZM25.4176 77V64.888H26.9056V73.192L26.2976 73.048L30.8736 68.376H32.7776L29.4656 71.848L33.0016 77H31.2416L28.0096 72.328L28.9376 72.28L26.4256 74.904L26.9056 73.816V77H25.4176ZM36.8675 77.192C36.3022 77.192 35.8008 77.0907 35.3635 76.888C34.9368 76.6747 34.6008 76.3867 34.3555 76.024C34.1102 75.6507 33.9875 75.224 33.9875 74.744C33.9875 74.2853 34.0835 73.8747 34.2755 73.512C34.4782 73.1387 34.7875 72.824 35.2035 72.568C35.6302 72.312 36.1635 72.1307 36.8035 72.024L40.0035 71.496V72.744L37.1395 73.224C36.5848 73.32 36.1795 73.496 35.9235 73.752C35.6782 74.008 35.5555 74.3227 35.5555 74.696C35.5555 75.048 35.6942 75.3413 35.9715 75.576C36.2595 75.8107 36.6168 75.928 37.0435 75.928C37.5875 75.928 38.0568 75.816 38.4515 75.592C38.8568 75.3573 39.1715 75.0427 39.3955 74.648C39.6302 74.2533 39.7475 73.816 39.7475 73.336V71.144C39.7475 70.6747 39.5715 70.296 39.2195 70.008C38.8782 69.7093 38.4248 69.56 37.8595 69.56C37.3688 69.56 36.9315 69.688 36.5475 69.944C36.1742 70.1893 35.8968 70.52 35.7155 70.936L34.4195 70.264C34.5795 69.8693 34.8355 69.5173 35.1875 69.208C35.5395 68.888 35.9502 68.6373 36.4195 68.456C36.8888 68.2747 37.3795 68.184 37.8915 68.184C38.5528 68.184 39.1342 68.312 39.6355 68.568C40.1368 68.8133 40.5262 69.16 40.8035 69.608C41.0915 70.0453 41.2355 70.5573 41.2355 71.144V77H39.7795V75.368L40.0515 75.464C39.8702 75.8053 39.6248 76.104 39.3155 76.36C39.0062 76.616 38.6435 76.8187 38.2275 76.968C37.8115 77.1173 37.3582 77.192 36.8675 77.192ZM47.4626 77.192C46.652 77.192 45.9213 76.9947 45.2706 76.6C44.6306 76.2053 44.124 75.6667 43.7506 74.984C43.3773 74.3013 43.1906 73.5387 43.1906 72.696C43.1906 71.832 43.3773 71.064 43.7506 70.392C44.124 69.7093 44.6306 69.1707 45.2706 68.776C45.9213 68.3813 46.652 68.184 47.4626 68.184C48.1773 68.184 48.812 68.3387 49.3666 68.648C49.9213 68.9467 50.3586 69.352 50.6786 69.864L50.4386 70.232V64.888H51.9426V77H50.4866V75.16L50.6786 75.416C50.38 75.9813 49.9426 76.4187 49.3666 76.728C48.8013 77.0373 48.1666 77.192 47.4626 77.192ZM47.5906 75.752C48.1346 75.752 48.62 75.6187 49.0466 75.352C49.4733 75.0853 49.8093 74.7227 50.0546 74.264C50.3106 73.7947 50.4386 73.272 50.4386 72.696C50.4386 72.1093 50.3106 71.5867 50.0546 71.128C49.8093 70.6587 49.4733 70.2907 49.0466 70.024C48.62 69.7573 48.1346 69.624 47.5906 69.624C47.0573 69.624 46.572 69.7627 46.1346 70.04C45.708 70.3067 45.372 70.6693 45.1266 71.128C44.8813 71.576 44.7586 72.0987 44.7586 72.696C44.7586 73.272 44.8813 73.7947 45.1266 74.264C45.372 74.7227 45.708 75.0853 46.1346 75.352C46.5613 75.6187 47.0466 75.752 47.5906 75.752ZM58.3418 77.192C57.5098 77.192 56.7578 77 56.0858 76.616C55.4138 76.2213 54.8804 75.6827 54.4858 75C54.0911 74.3173 53.8938 73.544 53.8938 72.68C53.8938 71.816 54.0858 71.048 54.4698 70.376C54.8644 69.704 55.3978 69.1707 56.0698 68.776C56.7418 68.3813 57.4991 68.184 58.3418 68.184C59.1738 68.184 59.9258 68.3813 60.5978 68.776C61.2698 69.16 61.7978 69.688 62.1818 70.36C62.5764 71.032 62.7738 71.8053 62.7738 72.68C62.7738 73.5547 62.5711 74.3333 62.1658 75.016C61.7604 75.688 61.2218 76.2213 60.5498 76.616C59.8884 77 59.1524 77.192 58.3418 77.192ZM58.3418 75.752C58.8751 75.752 59.3551 75.6187 59.7818 75.352C60.2191 75.0853 60.5604 74.7173 60.8058 74.248C61.0618 73.7787 61.1898 73.256 61.1898 72.68C61.1898 72.0933 61.0618 71.576 60.8058 71.128C60.5604 70.6693 60.2191 70.3067 59.7818 70.04C59.3551 69.7627 58.8751 69.624 58.3418 69.624C57.7978 69.624 57.3071 69.7627 56.8698 70.04C56.4431 70.3067 56.1018 70.6693 55.8458 71.128C55.5898 71.576 55.4618 72.0933 55.4618 72.68C55.4618 73.256 55.5898 73.7787 55.8458 74.248C56.1018 74.7173 56.4431 75.0853 56.8698 75.352C57.3071 75.6187 57.7978 75.752 58.3418 75.752ZM68.0623 77.096C67.2196 77.096 66.5689 76.856 66.1103 76.376C65.6623 75.896 65.4383 75.2187 65.4383 74.344V69.8H63.8703V68.376H64.1903C64.5743 68.376 64.8783 68.2587 65.1023 68.024C65.3263 67.7893 65.4383 67.48 65.4383 67.096V66.392H66.9263V68.376H68.8623V69.8H66.9263V74.296C66.9263 74.584 66.9689 74.8347 67.0543 75.048C67.1503 75.2613 67.3049 75.432 67.5182 75.56C67.7316 75.6773 68.0143 75.736 68.3663 75.736C68.4409 75.736 68.5316 75.7307 68.6383 75.72C68.7556 75.7093 68.8623 75.6987 68.9583 75.688V77C68.8196 77.032 68.6649 77.0533 68.4943 77.064C68.3236 77.0853 68.1796 77.096 68.0623 77.096ZM71.158 79.224V78.504C71.4887 78.4187 71.7393 78.2533 71.91 78.008C72.0807 77.7627 72.1767 77.4267 72.198 77H71.478V75.08H73.03V76.44C73.03 77.208 72.87 77.8267 72.55 78.296C72.2407 78.7653 71.7767 79.0747 71.158 79.224ZM82.7209 77.192C81.9635 77.192 81.2702 77.0533 80.6409 76.776C80.0115 76.488 79.4782 76.0987 79.0409 75.608C78.6035 75.1173 78.2889 74.568 78.0969 73.96L79.4569 73.4C79.7449 74.168 80.1715 74.76 80.7369 75.176C81.3129 75.5813 81.9849 75.784 82.7529 75.784C83.2222 75.784 83.6329 75.7093 83.9849 75.56C84.3369 75.4107 84.6089 75.2027 84.8009 74.936C85.0035 74.6587 85.1049 74.3387 85.1049 73.976C85.1049 73.4747 84.9609 73.08 84.6729 72.792C84.3955 72.4933 83.9849 72.2693 83.4409 72.12L81.2489 71.448C80.3849 71.1813 79.7235 70.76 79.2649 70.184C78.8062 69.608 78.5769 68.9467 78.5769 68.2C78.5769 67.5493 78.7315 66.9787 79.0409 66.488C79.3609 65.9867 79.7982 65.5973 80.3529 65.32C80.9182 65.032 81.5582 64.888 82.2729 64.888C82.9875 64.888 83.6329 65.016 84.2089 65.272C84.7955 65.528 85.2915 65.8747 85.6969 66.312C86.1022 66.7387 86.4009 67.2293 86.5929 67.784L85.2489 68.344C84.9929 67.672 84.6089 67.1653 84.0969 66.824C83.5849 66.472 82.9822 66.296 82.2889 66.296C81.8622 66.296 81.4835 66.3707 81.1529 66.52C80.8329 66.6587 80.5822 66.8667 80.4009 67.144C80.2302 67.4107 80.1449 67.7307 80.1449 68.104C80.1449 68.5413 80.2835 68.9307 80.5609 69.272C80.8382 69.6133 81.2595 69.8747 81.8249 70.056L83.8249 70.648C84.7635 70.936 85.4729 71.3467 85.9529 71.88C86.4329 72.4133 86.6729 73.0747 86.6729 73.864C86.6729 74.5147 86.5022 75.0907 86.1609 75.592C85.8302 76.0933 85.3662 76.488 84.7689 76.776C84.1822 77.0533 83.4995 77.192 82.7209 77.192ZM91.8486 77.192C91.23 77.192 90.67 77.048 90.1686 76.76C89.678 76.472 89.294 76.072 89.0166 75.56C88.75 75.0373 88.6166 74.44 88.6166 73.768V68.376H90.1046V73.608C90.1046 74.0347 90.19 74.408 90.3606 74.728C90.542 75.048 90.7873 75.2987 91.0966 75.48C91.4166 75.6613 91.7793 75.752 92.1846 75.752C92.59 75.752 92.9473 75.6613 93.2566 75.48C93.5766 75.2987 93.822 75.0373 93.9926 74.696C94.174 74.3547 94.2646 73.9493 94.2646 73.48V68.376H95.7686V77H94.3126V75.32L94.5526 75.464C94.35 76.008 94.0033 76.4347 93.5126 76.744C93.0326 77.0427 92.478 77.192 91.8486 77.192ZM102.538 77.192C101.845 77.192 101.21 77.0373 100.634 76.728C100.069 76.4187 99.6312 75.9813 99.3219 75.416L99.5299 75.16V77H98.0739V64.888H99.5619V70.232L99.3379 69.864C99.6579 69.352 100.095 68.9467 100.65 68.648C101.205 68.3387 101.839 68.184 102.554 68.184C103.365 68.184 104.09 68.3813 104.73 68.776C105.381 69.1707 105.893 69.7093 106.266 70.392C106.639 71.064 106.826 71.832 106.826 72.696C106.826 73.5387 106.639 74.3013 106.266 74.984C105.893 75.6667 105.381 76.2053 104.73 76.6C104.09 76.9947 103.359 77.192 102.538 77.192ZM102.426 75.752C102.97 75.752 103.455 75.6187 103.882 75.352C104.309 75.0853 104.639 74.7227 104.874 74.264C105.119 73.7947 105.242 73.272 105.242 72.696C105.242 72.0987 105.119 71.576 104.874 71.128C104.639 70.6693 104.309 70.3067 103.882 70.04C103.455 69.7627 102.97 69.624 102.426 69.624C101.882 69.624 101.391 69.7573 100.954 70.024C100.527 70.2907 100.186 70.6587 99.9299 71.128C99.6845 71.5867 99.5619 72.1093 99.5619 72.696C99.5619 73.272 99.6845 73.7947 99.9299 74.264C100.186 74.7227 100.527 75.0853 100.954 75.352C101.391 75.6187 101.882 75.752 102.426 75.752ZM111.865 77.192C111.001 77.192 110.249 76.9787 109.609 76.552C108.969 76.1253 108.516 75.5493 108.249 74.824L109.433 74.248C109.678 74.76 110.014 75.1653 110.441 75.464C110.868 75.7627 111.342 75.912 111.865 75.912C112.334 75.912 112.724 75.8 113.033 75.576C113.342 75.352 113.497 75.0587 113.497 74.696C113.497 74.44 113.422 74.2373 113.273 74.088C113.134 73.928 112.964 73.8053 112.761 73.72C112.558 73.624 112.372 73.5547 112.201 73.512L110.905 73.144C110.126 72.92 109.556 72.6 109.193 72.184C108.841 71.768 108.665 71.2827 108.665 70.728C108.665 70.216 108.793 69.7733 109.049 69.4C109.316 69.016 109.673 68.7173 110.121 68.504C110.58 68.2907 111.092 68.184 111.657 68.184C112.414 68.184 113.092 68.376 113.689 68.76C114.297 69.144 114.729 69.6827 114.985 70.376L113.769 70.936C113.577 70.488 113.289 70.136 112.905 69.88C112.521 69.6133 112.089 69.48 111.609 69.48C111.172 69.48 110.825 69.592 110.569 69.816C110.313 70.0293 110.185 70.3013 110.185 70.632C110.185 70.8773 110.249 71.08 110.377 71.24C110.505 71.3893 110.66 71.5067 110.841 71.592C111.022 71.6667 111.198 71.7307 111.369 71.784L112.777 72.2C113.481 72.4027 114.025 72.7173 114.409 73.144C114.804 73.5707 115.001 74.0827 115.001 74.68C115.001 75.16 114.868 75.592 114.601 75.976C114.334 76.36 113.966 76.6587 113.497 76.872C113.028 77.0853 112.484 77.192 111.865 77.192ZM120.453 77.096C119.61 77.096 118.96 76.856 118.501 76.376C118.053 75.896 117.829 75.2187 117.829 74.344V69.8H116.261V68.376H116.581C116.965 68.376 117.269 68.2587 117.493 68.024C117.717 67.7893 117.829 67.48 117.829 67.096V66.392H119.317V68.376H121.253V69.8H119.317V74.296C119.317 74.584 119.36 74.8347 119.445 75.048C119.541 75.2613 119.696 75.432 119.909 75.56C120.122 75.6773 120.405 75.736 120.757 75.736C120.832 75.736 120.922 75.7307 121.029 75.72C121.146 75.7093 121.253 75.6987 121.349 75.688V77C121.21 77.032 121.056 77.0533 120.885 77.064C120.714 77.0853 120.57 77.096 120.453 77.096ZM123.293 77V68.376H124.749V69.96L124.589 69.736C124.791 69.2453 125.101 68.8827 125.517 68.648C125.933 68.4027 126.439 68.28 127.037 68.28H127.565V69.688H126.813C126.205 69.688 125.714 69.88 125.341 70.264C124.967 70.6373 124.781 71.1707 124.781 71.864V77H123.293ZM131.414 77.192C130.849 77.192 130.348 77.0907 129.91 76.888C129.484 76.6747 129.148 76.3867 128.902 76.024C128.657 75.6507 128.534 75.224 128.534 74.744C128.534 74.2853 128.63 73.8747 128.822 73.512C129.025 73.1387 129.334 72.824 129.75 72.568C130.177 72.312 130.71 72.1307 131.35 72.024L134.55 71.496V72.744L131.686 73.224C131.132 73.32 130.726 73.496 130.47 73.752C130.225 74.008 130.102 74.3227 130.102 74.696C130.102 75.048 130.241 75.3413 130.518 75.576C130.806 75.8107 131.164 75.928 131.59 75.928C132.134 75.928 132.604 75.816 132.998 75.592C133.404 75.3573 133.718 75.0427 133.942 74.648C134.177 74.2533 134.294 73.816 134.294 73.336V71.144C134.294 70.6747 134.118 70.296 133.766 70.008C133.425 69.7093 132.972 69.56 132.406 69.56C131.916 69.56 131.478 69.688 131.094 69.944C130.721 70.1893 130.444 70.52 130.262 70.936L128.966 70.264C129.126 69.8693 129.382 69.5173 129.734 69.208C130.086 68.888 130.497 68.6373 130.966 68.456C131.436 68.2747 131.926 68.184 132.438 68.184C133.1 68.184 133.681 68.312 134.182 68.568C134.684 68.8133 135.073 69.16 135.35 69.608C135.638 70.0453 135.782 70.5573 135.782 71.144V77H134.326V75.368L134.598 75.464C134.417 75.8053 134.172 76.104 133.862 76.36C133.553 76.616 133.19 76.8187 132.774 76.968C132.358 77.1173 131.905 77.192 131.414 77.192ZM141.437 77.096C140.595 77.096 139.944 76.856 139.485 76.376C139.037 75.896 138.813 75.2187 138.813 74.344V69.8H137.245V68.376H137.565C137.949 68.376 138.253 68.2587 138.477 68.024C138.701 67.7893 138.813 67.48 138.813 67.096V66.392H140.301V68.376H142.237V69.8H140.301V74.296C140.301 74.584 140.344 74.8347 140.429 75.048C140.525 75.2613 140.68 75.432 140.893 75.56C141.107 75.6773 141.389 75.736 141.741 75.736C141.816 75.736 141.907 75.7307 142.013 75.72C142.131 75.7093 142.237 75.6987 142.333 75.688V77C142.195 77.032 142.04 77.0533 141.869 77.064C141.699 77.0853 141.555 77.096 141.437 77.096ZM148.011 77.192C147.179 77.192 146.437 76.9947 145.787 76.6C145.136 76.2053 144.624 75.6667 144.251 74.984C143.877 74.2907 143.691 73.5173 143.691 72.664C143.691 71.8 143.872 71.032 144.235 70.36C144.608 69.688 145.109 69.16 145.739 68.776C146.379 68.3813 147.093 68.184 147.883 68.184C148.523 68.184 149.088 68.3013 149.579 68.536C150.08 68.76 150.501 69.0693 150.843 69.464C151.195 69.848 151.461 70.2907 151.643 70.792C151.835 71.2827 151.931 71.7947 151.931 72.328C151.931 72.4453 151.92 72.5787 151.899 72.728C151.888 72.8667 151.872 73 151.851 73.128H144.779V71.848H150.987L150.283 72.424C150.379 71.8693 150.325 71.3733 150.123 70.936C149.92 70.4987 149.621 70.152 149.227 69.896C148.832 69.64 148.384 69.512 147.883 69.512C147.381 69.512 146.923 69.64 146.507 69.896C146.091 70.152 145.765 70.52 145.531 71C145.307 71.4693 145.216 72.0293 145.259 72.68C145.216 73.3093 145.312 73.864 145.547 74.344C145.792 74.8133 146.133 75.1813 146.571 75.448C147.019 75.704 147.504 75.832 148.027 75.832C148.603 75.832 149.088 75.6987 149.483 75.432C149.877 75.1653 150.197 74.824 150.443 74.408L151.691 75.048C151.52 75.4427 151.253 75.8053 150.891 76.136C150.539 76.456 150.117 76.712 149.627 76.904C149.147 77.096 148.608 77.192 148.011 77.192ZM159.948 77.192C159.276 77.192 158.679 77.0693 158.156 76.824C157.634 76.568 157.223 76.2107 156.924 75.752C156.636 75.2827 156.492 74.744 156.492 74.136C156.492 73.6133 156.588 73.1547 156.78 72.76C156.972 72.3547 157.207 72.008 157.484 71.72C157.772 71.432 158.06 71.192 158.348 71C158.647 70.7973 158.892 70.6373 159.084 70.52L159.996 69.992C160.306 69.8107 160.604 69.6133 160.892 69.4C161.18 69.1867 161.42 68.9413 161.612 68.664C161.804 68.376 161.9 68.056 161.9 67.704C161.9 67.288 161.762 66.9413 161.484 66.664C161.207 66.3867 160.86 66.248 160.444 66.248C160.028 66.248 159.682 66.3867 159.404 66.664C159.127 66.9413 158.988 67.2933 158.988 67.72C158.988 68.008 159.058 68.2907 159.196 68.568C159.335 68.8453 159.506 69.112 159.708 69.368C159.911 69.6133 160.114 69.8427 160.316 70.056L166.796 77H164.828L159.148 71.016C158.892 70.7493 158.636 70.456 158.38 70.136C158.124 69.816 157.906 69.464 157.724 69.08C157.554 68.6853 157.468 68.2533 157.468 67.784C157.468 67.208 157.602 66.7067 157.868 66.28C158.146 65.8427 158.508 65.5013 158.956 65.256C159.404 65.0107 159.9 64.888 160.444 64.888C160.978 64.888 161.463 65.0107 161.9 65.256C162.348 65.4907 162.706 65.8213 162.972 66.248C163.239 66.6747 163.372 67.1653 163.372 67.72C163.372 68.2853 163.239 68.7813 162.972 69.208C162.706 69.624 162.386 69.9813 162.012 70.28C161.639 70.568 161.287 70.808 160.956 71L160.06 71.544C159.794 71.7147 159.511 71.9173 159.212 72.152C158.914 72.376 158.658 72.648 158.444 72.968C158.231 73.2773 158.124 73.656 158.124 74.104C158.124 74.6373 158.295 75.0533 158.636 75.352C158.988 75.6507 159.442 75.8 159.996 75.8C160.348 75.8 160.663 75.7413 160.94 75.624C161.218 75.5067 161.463 75.352 161.676 75.16C161.9 74.968 162.098 74.76 162.268 74.536C162.439 74.3013 162.599 74.072 162.748 73.848L164.588 71.112H166.3L164.14 74.408C163.98 74.6747 163.778 74.968 163.532 75.288C163.287 75.608 162.999 75.912 162.668 76.2C162.338 76.488 161.948 76.728 161.5 76.92C161.063 77.1013 160.546 77.192 159.948 77.192ZM171.641 77V65.08H179.401V66.52H173.209V70.296H179.081V71.736H173.209V75.56H179.401V77H171.641ZM184.672 77.096C183.829 77.096 183.178 76.856 182.72 76.376C182.272 75.896 182.048 75.2187 182.048 74.344V69.8H180.48V68.376H180.8C181.184 68.376 181.488 68.2587 181.712 68.024C181.936 67.7893 182.048 67.48 182.048 67.096V66.392H183.536V68.376H185.472V69.8H183.536V74.296C183.536 74.584 183.578 74.8347 183.664 75.048C183.76 75.2613 183.914 75.432 184.128 75.56C184.341 75.6773 184.624 75.736 184.976 75.736C185.05 75.736 185.141 75.7307 185.248 75.72C185.365 75.7093 185.472 75.6987 185.568 75.688V77C185.429 77.032 185.274 77.0533 185.104 77.064C184.933 77.0853 184.789 77.096 184.672 77.096ZM187.511 77V64.888H188.999V70.056L188.727 69.912C188.941 69.368 189.282 68.9467 189.751 68.648C190.231 68.3387 190.791 68.184 191.431 68.184C192.05 68.184 192.599 68.3227 193.079 68.6C193.57 68.8773 193.954 69.2613 194.231 69.752C194.519 70.2427 194.663 70.7973 194.663 71.416V77H193.159V71.896C193.159 71.416 193.069 71.0107 192.887 70.68C192.717 70.3493 192.477 70.0933 192.167 69.912C191.858 69.72 191.501 69.624 191.095 69.624C190.701 69.624 190.343 69.72 190.023 69.912C189.703 70.0933 189.453 70.3547 189.271 70.696C189.09 71.0267 188.999 71.4267 188.999 71.896V77H187.511ZM200.761 77.192C199.929 77.192 199.187 76.9947 198.537 76.6C197.886 76.2053 197.374 75.6667 197.001 74.984C196.627 74.2907 196.441 73.5173 196.441 72.664C196.441 71.8 196.622 71.032 196.985 70.36C197.358 69.688 197.859 69.16 198.489 68.776C199.129 68.3813 199.843 68.184 200.633 68.184C201.273 68.184 201.838 68.3013 202.329 68.536C202.83 68.76 203.251 69.0693 203.593 69.464C203.945 69.848 204.211 70.2907 204.393 70.792C204.585 71.2827 204.681 71.7947 204.681 72.328C204.681 72.4453 204.67 72.5787 204.649 72.728C204.638 72.8667 204.622 73 204.601 73.128H197.529V71.848H203.737L203.033 72.424C203.129 71.8693 203.075 71.3733 202.873 70.936C202.67 70.4987 202.371 70.152 201.977 69.896C201.582 69.64 201.134 69.512 200.633 69.512C200.131 69.512 199.673 69.64 199.257 69.896C198.841 70.152 198.515 70.52 198.281 71C198.057 71.4693 197.966 72.0293 198.009 72.68C197.966 73.3093 198.062 73.864 198.297 74.344C198.542 74.8133 198.883 75.1813 199.321 75.448C199.769 75.704 200.254 75.832 200.777 75.832C201.353 75.832 201.838 75.6987 202.233 75.432C202.627 75.1653 202.947 74.824 203.193 74.408L204.441 75.048C204.27 75.4427 204.003 75.8053 203.641 76.136C203.289 76.456 202.867 76.712 202.377 76.904C201.897 77.096 201.358 77.192 200.761 77.192ZM206.621 77V68.376H208.077V69.96L207.917 69.736C208.119 69.2453 208.429 68.8827 208.845 68.648C209.261 68.4027 209.767 68.28 210.365 68.28H210.893V69.688H210.141C209.533 69.688 209.042 69.88 208.669 70.264C208.295 70.6373 208.109 71.1707 208.109 71.864V77H206.621ZM216.183 77.192C215.351 77.192 214.609 76.9947 213.959 76.6C213.308 76.2053 212.796 75.6667 212.423 74.984C212.049 74.2907 211.863 73.5173 211.863 72.664C211.863 71.8 212.044 71.032 212.407 70.36C212.78 69.688 213.281 69.16 213.911 68.776C214.551 68.3813 215.265 68.184 216.055 68.184C216.695 68.184 217.26 68.3013 217.751 68.536C218.252 68.76 218.673 69.0693 219.015 69.464C219.367 69.848 219.633 70.2907 219.815 70.792C220.007 71.2827 220.102 71.7947 220.102 72.328C220.102 72.4453 220.092 72.5787 220.071 72.728C220.06 72.8667 220.044 73 220.023 73.128H212.951V71.848H219.159L218.455 72.424C218.551 71.8693 218.497 71.3733 218.295 70.936C218.092 70.4987 217.793 70.152 217.399 69.896C217.004 69.64 216.556 69.512 216.055 69.512C215.553 69.512 215.095 69.64 214.679 69.896C214.263 70.152 213.937 70.52 213.703 71C213.479 71.4693 213.388 72.0293 213.431 72.68C213.388 73.3093 213.484 73.864 213.719 74.344C213.964 74.8133 214.305 75.1813 214.743 75.448C215.191 75.704 215.676 75.832 216.199 75.832C216.775 75.832 217.26 75.6987 217.655 75.432C218.049 75.1653 218.369 74.824 218.615 74.408L219.863 75.048C219.692 75.4427 219.425 75.8053 219.062 76.136C218.711 76.456 218.289 76.712 217.799 76.904C217.319 77.096 216.78 77.192 216.183 77.192ZM225.099 77.192C224.48 77.192 223.92 77.048 223.419 76.76C222.928 76.472 222.544 76.072 222.267 75.56C222 75.0373 221.867 74.44 221.867 73.768V68.376H223.355V73.608C223.355 74.0347 223.44 74.408 223.611 74.728C223.792 75.048 224.037 75.2987 224.347 75.48C224.667 75.6613 225.029 75.752 225.435 75.752C225.84 75.752 226.197 75.6613 226.507 75.48C226.827 75.2987 227.072 75.0373 227.243 74.696C227.424 74.3547 227.515 73.9493 227.515 73.48V68.376H229.019V77H227.563V75.32L227.803 75.464C227.6 76.008 227.253 76.4347 226.763 76.744C226.283 77.0427 225.728 77.192 225.099 77.192ZM231.324 77V68.376H232.78V70.136L232.572 69.864C232.785 69.32 233.127 68.904 233.596 68.616C234.065 68.328 234.593 68.184 235.18 68.184C235.852 68.184 236.455 68.3707 236.988 68.744C237.532 69.1173 237.905 69.608 238.108 70.216L237.692 70.232C237.916 69.56 238.295 69.0533 238.828 68.712C239.361 68.36 239.953 68.184 240.604 68.184C241.201 68.184 241.74 68.3227 242.22 68.6C242.711 68.8773 243.1 69.2613 243.388 69.752C243.676 70.2427 243.82 70.7973 243.82 71.416V77H242.316V71.896C242.316 71.416 242.231 71.0107 242.06 70.68C241.889 70.3493 241.655 70.0933 241.356 69.912C241.068 69.72 240.727 69.624 240.332 69.624C239.948 69.624 239.601 69.72 239.292 69.912C238.993 70.0933 238.753 70.3547 238.572 70.696C238.401 71.0267 238.316 71.4267 238.316 71.896V77H236.812V71.896C236.812 71.416 236.727 71.0107 236.556 70.68C236.385 70.3493 236.151 70.0933 235.852 69.912C235.564 69.72 235.223 69.624 234.828 69.624C234.444 69.624 234.097 69.72 233.788 69.912C233.489 70.0933 233.249 70.3547 233.068 70.696C232.897 71.0267 232.812 71.4267 232.812 71.896V77H231.324ZM250.683 77L247.723 68.376H249.371L251.723 75.592L251.147 75.576L253.451 68.376H254.859L257.163 75.576L256.587 75.592L258.955 68.376H260.587L257.627 77H256.203L253.931 69.8H254.379L252.107 77H250.683ZM264.133 77.192C263.568 77.192 263.066 77.0907 262.629 76.888C262.202 76.6747 261.866 76.3867 261.621 76.024C261.376 75.6507 261.253 75.224 261.253 74.744C261.253 74.2853 261.349 73.8747 261.541 73.512C261.744 73.1387 262.053 72.824 262.469 72.568C262.896 72.312 263.429 72.1307 264.069 72.024L267.269 71.496V72.744L264.405 73.224C263.85 73.32 263.445 73.496 263.189 73.752C262.944 74.008 262.821 74.3227 262.821 74.696C262.821 75.048 262.96 75.3413 263.237 75.576C263.525 75.8107 263.882 75.928 264.309 75.928C264.853 75.928 265.322 75.816 265.717 75.592C266.122 75.3573 266.437 75.0427 266.661 74.648C266.896 74.2533 267.013 73.816 267.013 73.336V71.144C267.013 70.6747 266.837 70.296 266.485 70.008C266.144 69.7093 265.69 69.56 265.125 69.56C264.634 69.56 264.197 69.688 263.813 69.944C263.44 70.1893 263.162 70.52 262.981 70.936L261.685 70.264C261.845 69.8693 262.101 69.5173 262.453 69.208C262.805 68.888 263.216 68.6373 263.685 68.456C264.154 68.2747 264.645 68.184 265.157 68.184C265.818 68.184 266.4 68.312 266.901 68.568C267.402 68.8133 267.792 69.16 268.069 69.608C268.357 70.0453 268.501 70.5573 268.501 71.144V77H267.045V75.368L267.317 75.464C267.136 75.8053 266.89 76.104 266.581 76.36C266.272 76.616 265.909 76.8187 265.493 76.968C265.077 77.1173 264.624 77.192 264.133 77.192ZM270.808 77V64.888H272.296V77H270.808ZM274.605 77V64.888H276.093V77H274.605ZM282.37 77.192C281.538 77.192 280.797 76.9947 280.146 76.6C279.495 76.2053 278.983 75.6667 278.61 74.984C278.237 74.2907 278.05 73.5173 278.05 72.664C278.05 71.8 278.231 71.032 278.594 70.36C278.967 69.688 279.469 69.16 280.098 68.776C280.738 68.3813 281.453 68.184 282.242 68.184C282.882 68.184 283.447 68.3013 283.938 68.536C284.439 68.76 284.861 69.0693 285.202 69.464C285.554 69.848 285.821 70.2907 286.002 70.792C286.194 71.2827 286.29 71.7947 286.29 72.328C286.29 72.4453 286.279 72.5787 286.258 72.728C286.247 72.8667 286.231 73 286.21 73.128H279.138V71.848H285.346L284.642 72.424C284.738 71.8693 284.685 71.3733 284.482 70.936C284.279 70.4987 283.981 70.152 283.586 69.896C283.191 69.64 282.743 69.512 282.242 69.512C281.741 69.512 281.282 69.64 280.866 69.896C280.45 70.152 280.125 70.52 279.89 71C279.666 71.4693 279.575 72.0293 279.618 72.68C279.575 73.3093 279.671 73.864 279.906 74.344C280.151 74.8133 280.493 75.1813 280.93 75.448C281.378 75.704 281.863 75.832 282.386 75.832C282.962 75.832 283.447 75.6987 283.842 75.432C284.237 75.1653 284.557 74.824 284.802 74.408L286.05 75.048C285.879 75.4427 285.613 75.8053 285.25 76.136C284.898 76.456 284.477 76.712 283.986 76.904C283.506 77.096 282.967 77.192 282.37 77.192ZM291.734 77.096C290.891 77.096 290.241 76.856 289.782 76.376C289.334 75.896 289.11 75.2187 289.11 74.344V69.8H287.542V68.376H287.862C288.246 68.376 288.55 68.2587 288.774 68.024C288.998 67.7893 289.11 67.48 289.11 67.096V66.392H290.598V68.376H292.534V69.8H290.598V74.296C290.598 74.584 290.641 74.8347 290.726 75.048C290.822 75.2613 290.977 75.432 291.19 75.56C291.403 75.6773 291.686 75.736 292.038 75.736C292.113 75.736 292.203 75.7307 292.31 75.72C292.427 75.7093 292.534 75.6987 292.63 75.688V77C292.491 77.032 292.337 77.0533 292.166 77.064C291.995 77.0853 291.851 77.096 291.734 77.096Z" fill="white" fill-opacity="0.65"/>
<path d="M65.844 39.456C64.0707 39.456 62.424 39.1267 60.904 38.468C59.384 37.784 58.092 36.8593 57.028 35.694C55.964 34.5287 55.1787 33.186 54.672 31.666L58.472 30.07C59.156 31.818 60.1567 33.1607 61.474 34.098C62.7913 35.0353 64.3113 35.504 66.034 35.504C67.0473 35.504 67.934 35.352 68.694 35.048C69.454 34.7187 70.0367 34.2627 70.442 33.68C70.8727 33.0973 71.088 32.426 71.088 31.666C71.088 30.6273 70.7967 29.804 70.214 29.196C69.6313 28.588 68.77 28.1067 67.63 27.752L62.31 26.08C60.182 25.4213 58.5607 24.4207 57.446 23.078C56.3313 21.71 55.774 20.114 55.774 18.29C55.774 16.694 56.1667 15.3007 56.952 14.11C57.7373 12.894 58.814 11.944 60.182 11.26C61.5753 10.576 63.1587 10.234 64.932 10.234C66.6293 10.234 68.1747 10.538 69.568 11.146C70.9613 11.7287 72.152 12.5393 73.14 13.578C74.1533 14.6167 74.888 15.82 75.344 17.188L71.62 18.822C71.0627 17.3273 70.1887 16.1747 68.998 15.364C67.8327 14.5533 66.4773 14.148 64.932 14.148C63.9947 14.148 63.1713 14.3127 62.462 14.642C61.7527 14.946 61.1953 15.402 60.79 16.01C60.41 16.5927 60.22 17.2767 60.22 18.062C60.22 18.974 60.5113 19.7847 61.094 20.494C61.6767 21.2033 62.5633 21.7353 63.754 22.09L68.694 23.648C70.9487 24.332 72.646 25.32 73.786 26.612C74.926 27.8787 75.496 29.462 75.496 31.362C75.496 32.9327 75.078 34.326 74.242 35.542C73.4313 36.758 72.304 37.7207 70.86 38.43C69.416 39.114 67.744 39.456 65.844 39.456ZM87.4455 39.456C85.9002 39.456 84.5448 39.114 83.3795 38.43C82.2142 37.7207 81.3022 36.7453 80.6435 35.504C80.0102 34.2373 79.6935 32.7807 79.6935 31.134V18.442H83.9875V30.754C83.9875 31.6913 84.1775 32.5147 84.5575 33.224C84.9375 33.9333 85.4695 34.4907 86.1535 34.896C86.8375 35.276 87.6228 35.466 88.5095 35.466C89.4215 35.466 90.2195 35.2633 90.9035 34.858C91.5875 34.4527 92.1195 33.8827 92.4995 33.148C92.9048 32.4133 93.1075 31.552 93.1075 30.564V18.442H97.3635V39H93.2975V34.972L93.7535 35.504C93.2722 36.7707 92.4742 37.746 91.3595 38.43C90.2448 39.114 88.9402 39.456 87.4455 39.456ZM113.359 39.456C111.763 39.456 110.306 39.1267 108.989 38.468C107.697 37.8093 106.696 36.8593 105.987 35.618L106.481 34.82V39H102.377V10.234H106.671V22.698L105.987 21.71C106.747 20.5447 107.76 19.6327 109.027 18.974C110.294 18.3153 111.738 17.986 113.359 17.986C115.31 17.986 117.058 18.4547 118.603 19.392C120.174 20.3293 121.402 21.6087 122.289 23.23C123.201 24.8513 123.657 26.6753 123.657 28.702C123.657 30.7287 123.201 32.5527 122.289 34.174C121.402 35.7953 120.186 37.0873 118.641 38.05C117.096 38.9873 115.335 39.456 113.359 39.456ZM112.941 35.466C114.157 35.466 115.234 35.1747 116.171 34.592C117.108 34.0093 117.843 33.2113 118.375 32.198C118.932 31.1593 119.211 29.994 119.211 28.702C119.211 27.41 118.932 26.2573 118.375 25.244C117.843 24.2307 117.108 23.4327 116.171 22.85C115.234 22.2673 114.157 21.976 112.941 21.976C111.75 21.976 110.674 22.2673 109.711 22.85C108.774 23.4327 108.026 24.2307 107.469 25.244C106.937 26.2573 106.671 27.41 106.671 28.702C106.671 29.994 106.937 31.1593 107.469 32.198C108.026 33.2113 108.774 34.0093 109.711 34.592C110.674 35.1747 111.75 35.466 112.941 35.466ZM133.534 39L125.744 10.69H130.494L136.802 35.2H135.624L142.16 10.69H146.834L153.37 35.2H152.154L158.5 10.69H163.212L155.46 39H150.406L143.832 14.87H145.162L138.55 39H133.534ZM170.766 39.456C169.372 39.456 168.144 39.2153 167.08 38.734C166.041 38.2273 165.23 37.5433 164.648 36.682C164.065 35.7953 163.774 34.7567 163.774 33.566C163.774 32.4513 164.014 31.4507 164.496 30.564C165.002 29.6773 165.775 28.93 166.814 28.322C167.852 27.714 169.157 27.2833 170.728 27.03L177.872 25.852V29.234L171.564 30.336C170.424 30.5387 169.588 30.906 169.056 31.438C168.524 31.9447 168.258 32.6033 168.258 33.414C168.258 34.1993 168.549 34.8453 169.132 35.352C169.74 35.8333 170.512 36.074 171.45 36.074C172.615 36.074 173.628 35.8207 174.49 35.314C175.376 34.8073 176.06 34.136 176.542 33.3C177.023 32.4387 177.264 31.4887 177.264 30.45V25.168C177.264 24.1547 176.884 23.3313 176.124 22.698C175.389 22.0393 174.401 21.71 173.16 21.71C172.02 21.71 171.019 22.014 170.158 22.622C169.322 23.2047 168.701 23.9647 168.296 24.902L164.724 23.116C165.104 22.1027 165.724 21.216 166.586 20.456C167.447 19.6707 168.448 19.0627 169.588 18.632C170.753 18.2013 171.982 17.986 173.274 17.986C174.895 17.986 176.326 18.29 177.568 18.898C178.834 19.506 179.81 20.3547 180.494 21.444C181.203 22.508 181.558 23.7493 181.558 25.168V39H177.454V35.276L178.328 35.39C177.846 36.226 177.226 36.948 176.466 37.556C175.731 38.164 174.882 38.6327 173.92 38.962C172.982 39.2913 171.931 39.456 170.766 39.456ZM186.578 39V10.234H190.872V39H186.578ZM195.893 39V10.234H200.187V39H195.893ZM214.859 39.456C212.807 39.456 210.983 38.9873 209.387 38.05C207.817 37.0873 206.588 35.7953 205.701 34.174C204.815 32.5273 204.371 30.6907 204.371 28.664C204.371 26.5867 204.815 24.75 205.701 23.154C206.613 21.558 207.829 20.304 209.349 19.392C210.869 18.4547 212.592 17.986 214.517 17.986C216.063 17.986 217.443 18.252 218.659 18.784C219.875 19.316 220.901 20.0507 221.737 20.988C222.573 21.9 223.207 22.9513 223.637 24.142C224.093 25.3327 224.321 26.5993 224.321 27.942C224.321 28.2713 224.309 28.6133 224.283 28.968C224.258 29.3227 224.207 29.652 224.131 29.956H207.753V26.536H221.699L219.647 28.094C219.901 26.8527 219.812 25.7507 219.381 24.788C218.976 23.8 218.343 23.0273 217.481 22.47C216.645 21.8873 215.657 21.596 214.517 21.596C213.377 21.596 212.364 21.8873 211.477 22.47C210.591 23.0273 209.907 23.838 209.425 24.902C208.944 25.9407 208.754 27.2073 208.855 28.702C208.729 30.0953 208.919 31.3113 209.425 32.35C209.957 33.3887 210.692 34.1993 211.629 34.782C212.592 35.3647 213.681 35.656 214.897 35.656C216.139 35.656 217.19 35.3773 218.051 34.82C218.938 34.2627 219.635 33.5407 220.141 32.654L223.637 34.364C223.232 35.3267 222.599 36.2007 221.737 36.986C220.901 37.746 219.888 38.354 218.697 38.81C217.532 39.2407 216.253 39.456 214.859 39.456ZM237.404 39.228C235.251 39.228 233.579 38.62 232.388 37.404C231.197 36.188 230.602 34.478 230.602 32.274V22.318H226.992V18.442H227.562C228.525 18.442 229.272 18.1633 229.804 17.606C230.336 17.0487 230.602 16.2887 230.602 15.326V13.73H234.896V18.442H239.57V22.318H234.896V32.084C234.896 32.7933 235.01 33.4013 235.238 33.908C235.466 34.3893 235.833 34.7693 236.34 35.048C236.847 35.3013 237.505 35.428 238.316 35.428C238.519 35.428 238.747 35.4153 239 35.39C239.253 35.3647 239.494 35.3393 239.722 35.314V39C239.367 39.0507 238.975 39.1013 238.544 39.152C238.113 39.2027 237.733 39.228 237.404 39.228Z" fill="white"/>
</svg>
