<svg width="20" height="20" viewBox="0 0 20 20" fill="none" xmlns="http://www.w3.org/2000/svg">
<rect width="20" height="20" rx="4" fill="#004BFF"/>
<path d="M8.49998 14C8.36746 13.9982 8.24039 13.9469 8.14373 13.8562L4.64373 10.3562C4.564 10.2591 4.52325 10.1358 4.52942 10.0102C4.53558 9.8847 4.58822 9.76595 4.67709 9.67709C4.76595 9.58822 4.8847 9.53558 5.01023 9.52942C5.13575 9.52325 5.25908 9.564 5.35623 9.64373L8.49998 12.7937L15.1437 6.14373C15.2409 6.064 15.3642 6.02325 15.4897 6.02942C15.6153 6.03558 15.734 6.08822 15.8229 6.17709C15.9117 6.26595 15.9644 6.3847 15.9705 6.51023C15.9767 6.63575 15.936 6.75908 15.8562 6.85623L8.85623 13.8562C8.75957 13.9469 8.6325 13.9982 8.49998 14Z" fill="white"/>
</svg>
