<svg width="21" height="20" viewBox="0 0 21 20" fill="none" xmlns="http://www.w3.org/2000/svg">
<g id="FingerprintSimple">
<path id="Vector" d="M14.25 9.375C14.0842 9.375 13.9252 9.44085 13.808 9.55806C13.6908 9.67527 13.625 9.83424 13.625 10C13.6309 12.3641 13.1689 14.7059 12.2656 16.8906C12.2272 16.9854 12.2127 17.0881 12.2233 17.1898C12.2339 17.2915 12.2693 17.389 12.3264 17.4739C12.3835 17.5587 12.4605 17.6282 12.5507 17.6764C12.6408 17.7245 12.7415 17.7498 12.8437 17.75C12.9682 17.7508 13.0901 17.7139 13.1933 17.6442C13.2964 17.5745 13.3761 17.4752 13.4218 17.3594C14.3839 15.0252 14.8777 12.5247 14.875 10C14.875 9.83424 14.8091 9.67527 14.6919 9.55806C14.5747 9.44085 14.4157 9.375 14.25 9.375Z" fill="#004BFF"/>
<path id="Vector_2" d="M10.5001 6.87502C10.939 6.87679 11.3728 6.97011 11.7737 7.14902C12.1746 7.32794 12.5337 7.58851 12.8282 7.91408C12.8825 7.97569 12.9485 8.02598 13.0223 8.06208C13.0961 8.09817 13.1763 8.11937 13.2582 8.12445C13.3402 8.12952 13.4224 8.11839 13.5001 8.09168C13.5778 8.06497 13.6495 8.0232 13.711 7.96877C13.772 7.91389 13.8217 7.84752 13.8571 7.77345C13.8925 7.69938 13.913 7.61906 13.9173 7.53708C13.9217 7.45509 13.9098 7.37306 13.8825 7.29565C13.8551 7.21825 13.8128 7.14699 13.7579 7.08596C13.1671 6.42685 12.3903 5.96244 11.53 5.75407C10.6698 5.54569 9.76653 5.60315 8.93961 5.91885C8.1127 6.23455 7.40099 6.79364 6.89847 7.5223C6.39596 8.25095 6.12628 9.11489 6.12505 10C6.12447 11.8008 5.66754 13.5721 4.79693 15.1485C4.71831 15.2927 4.69964 15.4621 4.74496 15.62C4.79029 15.7779 4.89596 15.9116 5.03912 15.9922C5.13248 16.0435 5.23728 16.0703 5.3438 16.0703C5.4554 16.0714 5.56519 16.0421 5.6615 15.9857C5.7578 15.9293 5.837 15.8479 5.89068 15.75C6.86383 13.9897 7.37455 12.0114 7.37505 10C7.37712 9.17185 7.70702 8.3782 8.29262 7.79259C8.87823 7.20699 9.67189 6.87708 10.5001 6.87502Z" fill="#004BFF"/>
<path id="Vector_3" d="M5.9141 4.87512C5.97514 4.82023 6.02478 4.75386 6.06017 4.67979C6.09556 4.60572 6.11602 4.5254 6.12037 4.44342C6.12473 4.36145 6.11289 4.27942 6.08554 4.20201C6.05819 4.12461 6.01586 4.05335 5.96097 3.99231C5.90609 3.93127 5.83971 3.88163 5.76564 3.84624C5.69157 3.81084 5.61125 3.79039 5.52928 3.78604C5.4473 3.78168 5.36527 3.79352 5.28787 3.82087C5.21046 3.84822 5.13921 3.89055 5.07816 3.94543C4.22798 4.70849 3.54793 5.64194 3.08221 6.68509C2.6165 7.72824 2.37555 8.85773 2.37504 10.0001C2.37647 10.9898 2.16323 11.968 1.75004 12.8673C1.683 13.0178 1.67734 13.1886 1.73423 13.3432C1.79113 13.4979 1.90611 13.6242 2.05472 13.6954C2.13842 13.7322 2.22894 13.7508 2.32035 13.7501C2.43977 13.7508 2.55676 13.7163 2.65676 13.651C2.75677 13.5858 2.83539 13.4925 2.88285 13.3829C3.37428 12.323 3.62761 11.1684 3.62504 10.0001C3.62608 9.03315 3.83041 8.07719 4.22476 7.19428C4.6191 6.31137 5.19467 5.52123 5.9141 4.87512Z" fill="#004BFF"/>
<path id="Vector_4" d="M10.5 1.875C9.57681 1.87426 8.66017 2.03012 7.78908 2.33594C7.63389 2.39253 7.50698 2.50755 7.43545 2.65645C7.36392 2.80534 7.35345 2.9763 7.40627 3.13282C7.43345 3.21028 7.47562 3.28164 7.53037 3.34281C7.58513 3.40398 7.6514 3.45376 7.7254 3.48931C7.7994 3.52485 7.87968 3.54548 7.96166 3.54999C8.04363 3.55451 8.12569 3.54283 8.20315 3.51563C9.24061 3.14976 10.3507 3.03791 11.4403 3.18944C12.5299 3.34097 13.5673 3.75146 14.4655 4.38653C15.3638 5.02159 16.0968 5.86272 16.603 6.83941C17.1092 7.81611 17.374 8.89991 17.375 10C17.3737 11.6351 17.1903 13.2649 16.8281 14.8594C16.7952 15.0218 16.8264 15.1906 16.9153 15.3304C17.0041 15.4703 17.1437 15.5703 17.3047 15.6094L17.4453 15.625C17.5857 15.6247 17.7219 15.5766 17.8312 15.4885C17.9406 15.4005 18.0167 15.2778 18.0469 15.1406C18.4311 13.4541 18.625 11.7298 18.625 10C18.6209 7.84639 17.7635 5.78216 16.2407 4.25932C14.7179 2.73648 12.6536 1.87913 10.5 1.875Z" fill="#004BFF"/>
<path id="Vector_5" d="M9.39853 15.6796C9.24704 15.6131 9.07553 15.6086 8.92074 15.667C8.76595 15.7254 8.6402 15.8421 8.57041 15.9921C8.42197 16.3202 8.25009 16.6483 8.07822 16.9608C7.99922 17.1063 7.98033 17.2768 8.0256 17.436C8.07088 17.5952 8.1767 17.7303 8.32041 17.8124C8.41338 17.8647 8.51844 17.8916 8.62509 17.8905C8.73636 17.8899 8.84551 17.86 8.94152 17.8038C9.03753 17.7475 9.11702 17.667 9.17197 17.5702C9.35947 17.2265 9.53916 16.8671 9.70322 16.5077C9.77234 16.3575 9.77909 16.1859 9.72198 16.0307C9.66487 15.8755 9.54856 15.7492 9.39853 15.6796Z" fill="#004BFF"/>
<path id="Vector_6" d="M10.5001 9.375C10.3344 9.375 10.1754 9.44085 10.0582 9.55806C9.94096 9.67527 9.87512 9.83424 9.87512 10C9.87414 11.2121 9.72193 12.4193 9.42199 13.5938C9.40078 13.6733 9.39549 13.7562 9.4064 13.8377C9.41732 13.9193 9.44424 13.9979 9.48562 14.0691C9.52699 14.1402 9.58201 14.2025 9.64751 14.2523C9.71301 14.3021 9.7877 14.3385 9.8673 14.3594L10.0236 14.375C10.1625 14.3746 10.2975 14.3285 10.4076 14.2438C10.5177 14.1591 10.5969 14.0404 10.6329 13.9062C10.9612 12.6302 11.1266 11.3176 11.1251 10C11.1251 9.83424 11.0593 9.67527 10.9421 9.55806C10.8248 9.44085 10.6659 9.375 10.5001 9.375Z" fill="#004BFF"/>
</g>
</svg>
