<svg width="320" height="320" viewBox="0 0 320 320" fill="none" xmlns="http://www.w3.org/2000/svg">
<mask id="mask0_3274_8230" style="mask-type:alpha" maskUnits="userSpaceOnUse" x="0" y="0" width="320" height="320">
<rect width="320" height="320" fill="#D9D9D9"/>
</mask>
<g mask="url(#mask0_3274_8230)">
<path d="M184.337 121.944L184.319 102.583L113.263 65.76V121.926L158.751 146.226L175.374 138.902L125.32 112.347L125.358 91.0663L184.337 121.944Z" fill="url(#paint0_linear_3274_8230)"/>
<path d="M140.881 99.1912V105.807L125.264 112.497L125.376 90.8054L140.881 99.1912Z" fill="url(#paint1_linear_3274_8230)"/>
<path d="M140.936 154.071L175.374 138.902L125.32 112.478L140.787 105.807L205.134 139.424L141.067 167.377L140.936 154.071Z" fill="url(#paint2_linear_3274_8230)"/>
<path d="M125.376 149.58L140.75 142.946L141.086 167.358L205.134 139.424V160.258L125.246 195.254L125.376 149.58Z" fill="url(#paint3_linear_3274_8230)"/>
<path d="M113.263 143.282L125.32 149.58L125.246 195.18L113.263 189.161V143.282Z" fill="url(#paint4_linear_3274_8230)"/>
<path d="M128.488 136.499L140.75 142.946L125.32 149.58L113.263 143.282L128.488 136.499Z" fill="url(#paint5_linear_3274_8230)"/>
<path d="M205.134 112.925L205.059 93.4331L184.356 102.583V121.963L205.134 112.925Z" fill="url(#paint6_linear_3274_8230)"/>
<path d="M113.263 65.76L134.191 56.1257L205.097 93.3957L184.356 102.583L113.263 65.76Z" fill="url(#paint7_linear_3274_8230)"/>
<path d="M46.2706 236.382H51.9543C51.9543 236.382 51.9543 223.952 38.3508 223.71C38.3508 223.71 26.4803 222.443 24.0577 232.431C24.0577 232.431 22.7346 238.823 26.2566 241.935C29.3818 244.608 33.2005 246.339 37.2699 246.929C40.6242 247.488 48.5814 249.799 47.7801 256.75C46.9788 263.701 28.2879 266.31 27.7661 252.166H22.0079C22.0079 252.166 21.0948 264.856 33.8411 267.54C46.5874 270.223 53.8923 262.62 53.296 253.955C52.6997 245.289 43.8294 242.923 37.4004 241.525C30.9713 240.128 28.996 237.015 29.555 233.773C30.1141 230.53 34.307 229.189 37.6613 229.189C39.7427 229.065 41.793 229.74 43.3932 231.077C44.9933 232.414 46.0226 234.312 46.2706 236.382V236.382Z" fill="white"/>
<path d="M60.1909 236.866H65.9119V261.968H79.4968V236.866H85.3668V268.043H60.1909V236.866Z" fill="white"/>
<path d="M114.009 237.444C113.026 237.211 112.018 237.099 111.009 237.109H107.282C104.272 237.01 101.341 238.078 99.1007 240.09V223.915H93.5103V268.043H98.3181L99.0635 263.943C101.021 266.019 103.675 267.299 106.517 267.54H111.81C111.81 267.54 120.158 268.08 122.432 256.974C122.618 255.978 122.712 254.968 122.711 253.955V250.228C122.719 248.239 122.352 246.267 121.63 244.414C121.029 242.716 120.02 241.192 118.691 239.977C117.361 238.761 115.753 237.891 114.009 237.444V237.444ZM116.562 255.427C116.562 257.137 115.882 258.777 114.673 259.986C113.464 261.195 111.824 261.875 110.114 261.875H105.865C104.155 261.875 102.515 261.195 101.306 259.986C100.097 258.777 99.4175 257.137 99.4175 255.427V248.942C99.4175 247.232 100.097 245.592 101.306 244.383C102.515 243.174 104.155 242.494 105.865 242.494H110.114C111.824 242.494 113.464 243.174 114.673 244.383C115.882 245.592 116.562 247.232 116.562 248.942V255.427Z" fill="white"/>
<path d="M123.345 223.915H129.252L138.253 261.875H139.315L146.546 223.915H156.981L164.491 262.024H165.497L174.684 224.307H180.517L170.119 268.043H159.72L152.304 230.065H151.26L144.235 268.043H133.855L123.345 223.915Z" fill="white"/>
<path d="M206.998 261.856V236.922H184.486V242.513H201.258V248.103H192.5C192.5 248.103 183.927 247.936 182.064 253.694C180.2 259.452 182.064 266.272 190.152 267.726C198.239 269.18 201.332 264.297 201.332 264.297L202.003 267.726H210.985V261.856H206.998ZM201.128 257.477C201.128 257.477 199.152 264.036 191.214 262.396C190.547 262.273 189.915 262.004 189.365 261.608C188.814 261.212 188.358 260.699 188.028 260.106C187.699 259.513 187.504 258.854 187.459 258.178C187.414 257.501 187.519 256.822 187.766 256.191C187.766 256.191 188.381 254.085 192.295 253.358H201.128V257.477Z" fill="white"/>
<path d="M223.639 223.915H218.048V267.54H223.639V223.915Z" fill="white"/>
<path d="M235.472 223.915H229.881V267.54H235.472V223.915Z" fill="white"/>
<path d="M257.386 237.258C257.386 237.258 244.92 235.096 241.379 246.575C241.379 246.575 239.348 255.557 242.59 261.614C243.955 263.779 245.903 265.515 248.211 266.623C250.518 267.73 253.092 268.164 255.635 267.875C265.045 267.186 268.288 262.285 268.288 258.558H262.343C262.343 258.558 262.343 262.098 257.368 262.154C252.392 262.21 246.187 262.694 246.373 255.203H269.182C269.182 255.203 271.344 238.711 257.386 237.258ZM246.541 249.78C246.299 246.967 249.112 241.898 256.194 242.326C258.171 242.326 260.067 243.112 261.465 244.51C262.862 245.908 263.648 247.804 263.648 249.78H246.541Z" fill="white"/>
<path d="M278.09 223.915H283.736V236.923H294.339V242.606H283.792V261.856H296.557V267.931H278.09V242.737H272.891V236.923H278.164L278.09 223.915Z" fill="white"/>
</g>
<defs>
<linearGradient id="paint0_linear_3274_8230" x1="95.4857" y1="105.993" x2="221.03" y2="105.993" gradientUnits="userSpaceOnUse">
<stop stop-color="#FFD4B2"/>
<stop offset="0.36" stop-color="#9ACEB7"/>
<stop offset="0.67" stop-color="#47C8BB"/>
<stop offset="0.89" stop-color="#14C5BE"/>
<stop offset="1" stop-color="#00C4BF"/>
</linearGradient>
<linearGradient id="paint1_linear_3274_8230" x1="133.072" y1="120.23" x2="133.072" y2="71.5927" gradientUnits="userSpaceOnUse">
<stop stop-color="#00FECF"/>
<stop offset="0.08" stop-color="#00E5D0"/>
<stop offset="0.24" stop-color="#00A5D1"/>
<stop offset="0.48" stop-color="#0040D4"/>
<stop offset="0.54" stop-color="#0025D5"/>
<stop offset="1"/>
</linearGradient>
<linearGradient id="paint2_linear_3274_8230" x1="125.32" y1="136.592" x2="253.175" y2="136.592" gradientUnits="userSpaceOnUse">
<stop stop-color="#FDEC9F"/>
<stop offset="0.08" stop-color="#E4D8A4"/>
<stop offset="0.24" stop-color="#A4A6B2"/>
<stop offset="0.47" stop-color="#3F57C8"/>
<stop offset="0.61" stop-color="#0025D5"/>
<stop offset="1"/>
</linearGradient>
<linearGradient id="paint3_linear_3274_8230" x1="99.1755" y1="167.339" x2="262.66" y2="167.339" gradientUnits="userSpaceOnUse">
<stop offset="0.05" stop-color="#62A5FF"/>
<stop offset="0.45" stop-color="#1032D1"/>
<stop offset="1"/>
</linearGradient>
<linearGradient id="paint4_linear_3274_8230" x1="108.623" y1="168.644" x2="139.054" y2="170.34" gradientUnits="userSpaceOnUse">
<stop stop-color="#FFD4B2"/>
<stop offset="0.36" stop-color="#9ACEB7"/>
<stop offset="0.67" stop-color="#47C8BB"/>
<stop offset="0.89" stop-color="#14C5BE"/>
<stop offset="1" stop-color="#00C4BF"/>
</linearGradient>
<linearGradient id="paint5_linear_3274_8230" x1="110.319" y1="143.039" x2="166.373" y2="143.039" gradientUnits="userSpaceOnUse">
<stop stop-color="#00FECF"/>
<stop offset="0.08" stop-color="#00E5D0"/>
<stop offset="0.25" stop-color="#00A5D1"/>
<stop offset="0.49" stop-color="#0040D4"/>
<stop offset="0.56" stop-color="#0025D5"/>
</linearGradient>
<linearGradient id="paint6_linear_3274_8230" x1="164.472" y1="108.248" x2="302.446" y2="105.751" gradientUnits="userSpaceOnUse">
<stop stop-color="#00FECF"/>
<stop offset="0.05" stop-color="#00E5D0"/>
<stop offset="0.15" stop-color="#00A5D1"/>
<stop offset="0.29" stop-color="#0040D4"/>
<stop offset="0.33" stop-color="#0025D5"/>
</linearGradient>
<linearGradient id="paint7_linear_3274_8230" x1="113.263" y1="79.3636" x2="284.426" y2="79.3636" gradientUnits="userSpaceOnUse">
<stop stop-color="#FFD4AF"/>
<stop offset="0.1" stop-color="#E6D5BA"/>
<stop offset="0.31" stop-color="#A7D6D5"/>
<stop offset="0.61" stop-color="#43D9FF"/>
<stop offset="0.63" stop-color="#37B1D0"/>
<stop offset="0.65" stop-color="#2B8CA5"/>
<stop offset="0.67" stop-color="#216B7D"/>
<stop offset="0.7" stop-color="#184E5B"/>
<stop offset="0.72" stop-color="#10353F"/>
<stop offset="0.75" stop-color="#0A2228"/>
<stop offset="0.78" stop-color="#061316"/>
<stop offset="0.82" stop-color="#020809"/>
<stop offset="0.88" stop-color="#010202"/>
<stop offset="1"/>
</linearGradient>
</defs>
</svg>
