<svg width="139" height="23" viewBox="0 0 139 23" fill="none" xmlns="http://www.w3.org/2000/svg">
<path fill-rule="evenodd" clip-rule="evenodd" d="M12.2409 7.0499H15.1067C15.1067 7.0499 15.1067 0.854249 8.24761 0.733626C8.24761 0.733626 2.26229 0.102095 1.04078 5.08055C1.04078 5.08055 0.373645 8.26659 2.1495 9.81775C3.72528 11.1501 5.65074 12.0129 7.7026 12.307C9.3939 12.5856 13.4061 13.7375 13.002 17.2022C12.598 20.6669 3.17372 21.9673 2.91062 14.9173H0.00723046C0.00723046 14.9173 -0.453171 21.2426 5.97374 22.5804C12.4007 23.9177 16.0839 20.1281 15.7832 15.809C15.4826 11.4895 11.01 10.3102 7.7684 9.61339C4.52674 8.91706 3.53076 7.36541 3.81261 5.74945C4.09452 4.133 6.20866 3.46459 7.89995 3.46459C8.94943 3.40278 9.98323 3.73923 10.7901 4.40565C11.5969 5.07207 12.1159 6.01812 12.2409 7.0499ZM19.3298 7.2822H22.2144V19.7941H29.0642V7.2822H32.0239V22.8222H19.3298V7.2822ZM44.9532 7.42263C45.462 7.41764 45.9702 7.47347 46.4659 7.58961C47.3452 7.81241 48.156 8.24606 48.8266 8.85217C49.4967 9.45778 50.0055 10.2174 50.3085 11.0638C50.6726 11.9874 50.8576 12.9703 50.8536 13.9617V15.8194C50.8541 16.3243 50.8067 16.8278 50.7129 17.3242C49.5663 22.8599 45.3571 22.5908 45.3571 22.5908H42.6883C41.2553 22.4706 39.9171 21.8326 38.9301 20.7979L38.5542 22.8415H36.13V0.846168H38.9488V8.90849C40.0784 7.90562 41.5563 7.37328 43.074 7.42263H44.9532ZM46.8007 18.8255C47.4103 18.2229 47.7531 17.4055 47.7531 16.5531V13.3207C47.7531 12.4684 47.4103 11.6509 46.8007 11.0483C46.1911 10.4457 45.3641 10.1067 44.5019 10.1067H42.3595C41.4973 10.1067 40.6704 10.4457 40.0608 11.0483C39.4512 11.6509 39.1086 12.4684 39.1086 13.3207V16.5531C39.1086 17.4055 39.4512 18.2229 40.0608 18.8255C40.6704 19.4281 41.4973 19.7671 42.3595 19.7671H44.5019C45.3641 19.7671 46.1911 19.4281 46.8007 18.8255ZM51.3134 0.846168H54.2918L58.8303 19.7671H59.3658L63.0118 0.846168H68.2733L72.06 19.8413H72.5672L77.1995 1.04156H80.1406L74.8977 22.8415H69.6544L65.9151 3.9116H65.3887L61.8465 22.8415H56.6128L51.3134 0.846168ZM93.5627 7.35142V19.7796H95.5731V22.7055H91.0442L90.7058 20.9963C90.7058 20.9963 89.1463 23.4302 85.0687 22.7055C80.9906 21.9807 80.0507 18.5813 80.9906 15.7113C81.9299 12.8413 86.2526 12.9245 86.2526 12.9245H90.6685V10.1382H82.2118V7.35142H93.5627ZM85.6042 20.0488C89.6066 20.8662 90.603 17.5969 90.603 17.5969V15.5438H86.1492C84.1757 15.9062 83.8656 16.9559 83.8656 16.9559C83.7411 17.2704 83.6881 17.6089 83.7108 17.9463C83.7335 18.2833 83.8318 18.6117 83.9977 18.9073C84.1641 19.2029 84.394 19.4586 84.6719 19.656C84.9492 19.8534 85.2678 19.9875 85.6042 20.0488ZM102.023 1.12298H99.2044V22.8676H102.023V1.12298ZM105.241 1.12298H108.06V22.8676H105.241V1.12298ZM119.179 7.5705C119.179 7.5705 112.894 6.49287 111.108 12.2145C111.108 12.2145 110.084 16.6915 111.719 19.7106C112.407 20.7897 113.389 21.655 114.553 22.2073C115.716 22.7591 117.014 22.9754 118.296 22.8313C123.041 22.4879 124.676 20.0451 124.676 18.1874H121.679C121.679 18.1874 121.679 19.9518 119.17 19.9797C119.096 19.9806 119.022 19.9816 118.947 19.9827C118.896 19.9834 118.846 19.9842 118.794 19.9849C116.36 20.0218 113.537 20.0645 113.626 16.5151H125.127C125.127 16.5151 126.217 8.29474 119.179 7.5705ZM113.711 13.812C113.589 12.4099 115.007 9.88328 118.578 10.0966C119.575 10.0966 120.531 10.4884 121.236 11.1852C121.94 11.882 122.337 12.8271 122.337 13.812H113.711ZM132.535 0.915383H129.689L129.726 7.39914H127.067V10.2971H129.689V22.8549H139V19.8268H132.564V10.2318H137.882V7.39914H132.535V0.915383Z" fill="white"/>
</svg>
