<svg width="28" height="28" viewBox="0 0 28 28" fill="none" xmlns="http://www.w3.org/2000/svg">
<path d="M7.45941 10.141L7.45943 10.141C11.0703 6.61968 16.93 6.61968 20.5409 10.141L20.89 9.78299L20.5409 10.141L20.9762 10.5655L19.6091 11.8986L19.1558 11.4565C16.307 8.67855 11.6934 8.67855 8.84456 11.4565L8.34647 11.9422L6.97938 10.609L7.45941 10.141ZM20.9989 10.5433L20.9989 10.5434L20.9989 10.5433ZM6.95668 10.6312L6.95673 10.6311L6.95668 10.6312ZM19.328 17.6513L23.7854 13.3048L25.1524 14.6379L18.8928 20.742L14.4355 16.3955C14.4355 16.3955 14.4354 16.3954 14.4354 16.3954C14.1936 16.1596 13.8067 16.1596 13.5649 16.3955L9.10765 20.742L2.8479 14.6378L4.21494 13.3047L8.6723 17.6513C8.67234 17.6513 8.67237 17.6513 8.6724 17.6514C8.91417 17.8872 9.30104 17.8872 9.54281 17.6514C9.54284 17.6513 9.54287 17.6513 9.5429 17.6513L14.0001 13.3047L18.4574 17.6513C18.4575 17.6513 18.4575 17.6513 18.4575 17.6514C18.6993 17.8872 19.0862 17.8872 19.3279 17.6514C19.328 17.6513 19.328 17.6513 19.328 17.6513ZM25.175 14.6158L25.175 14.6158C25.175 14.6158 25.1751 14.6158 25.1751 14.6157L25.175 14.6158ZM18.8974 20.7465L18.8973 20.7464C18.8974 20.7465 18.8974 20.7465 18.8974 20.7465L18.8974 20.7465ZM2.82523 14.6599L2.82527 14.6598L2.82523 14.6599ZM4.21031 13.3002L4.21036 13.3002L4.21031 13.3002Z" fill="currentColor" stroke="currentColor"/>
</svg>
